# xmcd
#
# Track frame offsets:
#	150
#	15773
#	30508
#	49336
#	68493
#	88122
#	107004
#	120457
#	137894
#	153808
#	170660
#	190145
#	208369
#	234002
#	251151
#	270279
#	291405
#	302679
#
# Disc length: 4296 seconds
#
# Revision: 0
# Processed by: cddbd v1.5.2PL0 Copyright (c) Steve Scherf et al.
# Submitted via: EasyCDDAExtractor 12.0.7.1
#
DISCID=ef10c612
DTITLE=Various Artist - Аллея шансона - Лучшее
DYEAR=2011
DGENRE=Chanson
TTITLE0=Стас Михайлов - Мама
TTITLE1=Елена Ваенга - Аэропорт
TTITLE2=Андрей Бандера - Ты лети, моя душа
TTITLE3=Рада Рай - Душа
TTITLE4=Иван Кучин - В таверне
TTITLE5=Бутырка - Шарик
TTITLE6=Сергей Трофимов - Снегири
TTITLE7=Михаил Шуфутинский - Мосты
TTITLE8=Вика Цыганова - Приходите в мой дом
TTITLE9=Александр Розенбаум - Рубашка нараспашку
TTITLE10=Михаил Круг - Девочка-пай
TTITLE11=Ефрем Амирамов - Молодая
TTITLE12=Евгений Кемеровский - Братва, не стреляйте друг друга
TTITLE13=Игорь Слуцкий - Задушевная
TTITLE14=Виктор Королев - Я не стану ждать на берегу
TTITLE15=Катя Огонек - Я ревную тебя
TTITLE16=Ирина Круг - Встретились глаза
TTITLE17=Жека - Играет Дассен
EXTD=
EXTT0=
EXTT1=
EXTT2=
EXTT3=
EXTT4=
EXTT5=
EXTT6=
EXTT7=
EXTT8=
EXTT9=
EXTT10=
EXTT11=
EXTT12=
EXTT13=
EXTT14=
EXTT15=
EXTT16=
EXTT17=
PLAYORDER=
